<svg width="34" height="20" viewBox="0 0 34 20" fill="none" xmlns="http://www.w3.org/2000/svg">
<path d="M10 5C7.28667 5 5 7.28667 5 10C5 12.7133 7.28667 15 10 15C12.7133 15 15 12.7133 15 10C15 7.28667 12.7133 5 10 5Z" fill="black"/>
<path d="M23.3333 0H10C4.5 0 0.0183333 4.48167 0 10V10.0267C0.0114442 12.6729 1.06953 15.207 2.94318 17.0756C4.81683 18.9443 7.35379 19.9956 10 20H23.3333C25.9824 19.9956 28.5219 18.942 30.396 17.0697C32.2701 15.1975 33.3263 12.6591 33.3333 10.01V10C33.3183 4.485 28.835 0 23.3333 0ZM23.3333 16.6667H10C8.23558 16.664 6.54394 15.9631 5.29474 14.717C4.04555 13.471 3.34038 11.7811 3.33333 10.0167C3.34 6.33167 6.33 3.33333 10 3.33333H23.3333C27.0033 3.33333 29.9933 6.33167 30 10.01C29.9943 11.7754 29.2897 13.4668 28.0404 14.7142C26.7912 15.9616 25.0988 16.6636 23.3333 16.6667ZM30 10.0267L30.7383 10.02L31.6667 10.0267H30Z" fill="black"/>
</svg>
